<svg
    width="93"
    height="49"
    viewBox="0 0 93 49"
    fill="none"
    xmlns="http://www.w3.org/2000/svg"
>
    <path
        d="M12.52 33V16.2H14.92V30.912H24.016V33H12.52ZM34.0493 33.192C32.7693 33.192 31.5773 32.976 30.4733 32.544C29.3853 32.112 28.4413 31.512 27.6413 30.744C26.8413 29.96 26.2173 29.048 25.7693 28.008C25.3213 26.968 25.0973 25.832 25.0973 24.6C25.0973 23.368 25.3213 22.232 25.7693 21.192C26.2173 20.152 26.8413 19.248 27.6413 18.48C28.4413 17.696 29.3853 17.088 30.4733 16.656C31.5613 16.224 32.7533 16.008 34.0493 16.008C35.3293 16.008 36.5053 16.224 37.5773 16.656C38.6653 17.072 39.6093 17.672 40.4093 18.456C41.2253 19.224 41.8493 20.128 42.2813 21.168C42.7293 22.208 42.9533 23.352 42.9533 24.6C42.9533 25.848 42.7293 26.992 42.2813 28.032C41.8493 29.072 41.2253 29.984 40.4093 30.768C39.6093 31.536 38.6653 32.136 37.5773 32.568C36.5053 32.984 35.3293 33.192 34.0493 33.192ZM34.0493 31.056C34.9773 31.056 35.8333 30.896 36.6173 30.576C37.4173 30.256 38.1053 29.808 38.6813 29.232C39.2733 28.64 39.7293 27.952 40.0493 27.168C40.3853 26.384 40.5533 25.528 40.5533 24.6C40.5533 23.672 40.3853 22.816 40.0493 22.032C39.7293 21.248 39.2733 20.568 38.6813 19.992C38.1053 19.4 37.4173 18.944 36.6173 18.624C35.8333 18.304 34.9773 18.144 34.0493 18.144C33.1053 18.144 32.2333 18.304 31.4333 18.624C30.6493 18.944 29.9613 19.4 29.3693 19.992C28.7773 20.568 28.3133 21.248 27.9773 22.032C27.6573 22.816 27.4973 23.672 27.4973 24.6C27.4973 25.528 27.6573 26.384 27.9773 27.168C28.3133 27.952 28.7773 28.64 29.3693 29.232C29.9613 29.808 30.6493 30.256 31.4333 30.576C32.2333 30.896 33.1053 31.056 34.0493 31.056ZM54.2056 33.192C52.9096 33.192 51.7176 32.984 50.6296 32.568C49.5416 32.136 48.5976 31.536 47.7976 30.768C46.9976 29.984 46.3736 29.072 45.9256 28.032C45.4776 26.992 45.2536 25.848 45.2536 24.6C45.2536 23.352 45.4776 22.208 45.9256 21.168C46.3736 20.128 46.9976 19.224 47.7976 18.456C48.6136 17.672 49.5656 17.072 50.6536 16.656C51.7416 16.224 52.9416 16.008 54.2536 16.008C55.5816 16.008 56.7976 16.224 57.9016 16.656C59.0056 17.088 59.9416 17.736 60.7096 18.6L59.2216 20.088C58.5336 19.416 57.7816 18.928 56.9656 18.624C56.1656 18.304 55.2936 18.144 54.3496 18.144C53.3896 18.144 52.4936 18.304 51.6616 18.624C50.8456 18.944 50.1336 19.392 49.5256 19.968C48.9336 20.544 48.4696 21.232 48.1336 22.032C47.8136 22.816 47.6536 23.672 47.6536 24.6C47.6536 25.512 47.8136 26.368 48.1336 27.168C48.4696 27.952 48.9336 28.64 49.5256 29.232C50.1336 29.808 50.8456 30.256 51.6616 30.576C52.4776 30.896 53.3656 31.056 54.3256 31.056C55.2216 31.056 56.0776 30.92 56.8936 30.648C57.7256 30.36 58.4936 29.888 59.1976 29.232L60.5656 31.056C59.7336 31.76 58.7576 32.296 57.6376 32.664C56.5336 33.016 55.3896 33.192 54.2056 33.192ZM58.2616 30.744V24.504H60.5656V31.056L58.2616 30.744ZM72.7446 33.192C71.4646 33.192 70.2726 32.976 69.1686 32.544C68.0806 32.112 67.1366 31.512 66.3366 30.744C65.5366 29.96 64.9126 29.048 64.4646 28.008C64.0166 26.968 63.7926 25.832 63.7926 24.6C63.7926 23.368 64.0166 22.232 64.4646 21.192C64.9126 20.152 65.5366 19.248 66.3366 18.48C67.1366 17.696 68.0806 17.088 69.1686 16.656C70.2566 16.224 71.4486 16.008 72.7446 16.008C74.0246 16.008 75.2006 16.224 76.2726 16.656C77.3606 17.072 78.3046 17.672 79.1046 18.456C79.9206 19.224 80.5446 20.128 80.9766 21.168C81.4246 22.208 81.6486 23.352 81.6486 24.6C81.6486 25.848 81.4246 26.992 80.9766 28.032C80.5446 29.072 79.9206 29.984 79.1046 30.768C78.3046 31.536 77.3606 32.136 76.2726 32.568C75.2006 32.984 74.0246 33.192 72.7446 33.192ZM72.7446 31.056C73.6726 31.056 74.5286 30.896 75.3126 30.576C76.1126 30.256 76.8006 29.808 77.3766 29.232C77.9686 28.64 78.4246 27.952 78.7446 27.168C79.0806 26.384 79.2486 25.528 79.2486 24.6C79.2486 23.672 79.0806 22.816 78.7446 22.032C78.4246 21.248 77.9686 20.568 77.3766 19.992C76.8006 19.4 76.1126 18.944 75.3126 18.624C74.5286 18.304 73.6726 18.144 72.7446 18.144C71.8006 18.144 70.9286 18.304 70.1286 18.624C69.3446 18.944 68.6566 19.4 68.0646 19.992C67.4726 20.568 67.0086 21.248 66.6726 22.032C66.3526 22.816 66.1926 23.672 66.1926 24.6C66.1926 25.528 66.3526 26.384 66.6726 27.168C67.0086 27.952 67.4726 28.64 68.0646 29.232C68.6566 29.808 69.3446 30.256 70.1286 30.576C70.9286 30.896 71.8006 31.056 72.7446 31.056Z"
        fill="black"
    />
</svg>